<svg width="32" height="32" viewBox="0 0 32 32" fill="none" xmlns="http://www.w3.org/2000/svg">
  <defs>
    <linearGradient id="primaryGradient" x1="0%" y1="0%" x2="100%" y2="100%">
      <stop offset="0%" style="stop-color:#3B82F6;stop-opacity:1" />
      <stop offset="100%" style="stop-color:#1E40AF;stop-opacity:1" />
    </linearGradient>
    <linearGradient id="accentGradient" x1="0%" y1="0%" x2="100%" y2="100%">
      <stop offset="0%" style="stop-color:#10B981;stop-opacity:1" />
      <stop offset="100%" style="stop-color:#059669;stop-opacity:1" />
    </linearGradient>
  </defs>
  
  <!-- Maison -->
  <path d="M4 20 L16 8 L28 20 L28 28 L20 28 L20 20 L12 20 L12 28 L4 28 Z" fill="url(#primaryGradient)"/>
  
  <!-- Toit -->
  <path d="M2 20 L16 6 L30 20 L27 20 L16 9 L5 20 Z" fill="url(#accentGradient)"/>
  
  <!-- Badge de certification -->
  <g transform="translate(22, 14)">
    <path d="M0 0 L6 0 L6 4 L3 7 L0 4 Z" fill="url(#accentGradient)" stroke="#ffffff" stroke-width="0.8"/>
    <path d="M1.5 2 L2.5 3 L4.5 1" stroke="#ffffff" stroke-width="1" stroke-linecap="round" fill="none"/>
  </g>
  
  <!-- Fenêtre -->
  <rect x="13" y="16" width="6" height="6" fill="#ffffff" opacity="0.9"/>
  <rect x="13" y="16" width="6" height="2" fill="url(#primaryGradient)" opacity="0.7"/>
</svg>
