<svg width="600" height="400" viewBox="0 0 600 400" xmlns="http://www.w3.org/2000/svg">
  <defs>
    <linearGradient id="heroGradient" x1="0%" y1="0%" x2="100%" y2="100%">
      <stop offset="0%" style="stop-color:#667eea;stop-opacity:1" />
      <stop offset="50%" style="stop-color:#764ba2;stop-opacity:1" />
      <stop offset="100%" style="stop-color:#f093fb;stop-opacity:1" />
    </linearGradient>
    
    <linearGradient id="buildingGradient" x1="0%" y1="0%" x2="100%" y2="100%">
      <stop offset="0%" style="stop-color:#3b82f6;stop-opacity:1" />
      <stop offset="100%" style="stop-color:#1d4ed8;stop-opacity:1" />
    </linearGradient>
    
    <filter id="shadow" x="-50%" y="-50%" width="200%" height="200%">
      <feDropShadow dx="2" dy="4" stdDeviation="3" flood-color="rgba(0,0,0,0.1)"/>
    </filter>
  </defs>
  
  <!-- Background -->
  <rect width="600" height="400" fill="url(#heroGradient)" opacity="0.1"/>
  
  <!-- Modern building shapes -->
  <g transform="translate(50, 100)">
    <!-- Building 1 -->
    <rect x="0" y="50" width="80" height="200" rx="8" fill="url(#buildingGradient)" filter="url(#shadow)"/>
    <rect x="10" y="70" width="12" height="15" rx="2" fill="white" opacity="0.8"/>
    <rect x="30" y="70" width="12" height="15" rx="2" fill="white" opacity="0.8"/>
    <rect x="50" y="70" width="12" height="15" rx="2" fill="white" opacity="0.8"/>
    
    <rect x="10" y="100" width="12" height="15" rx="2" fill="white" opacity="0.8"/>
    <rect x="30" y="100" width="12" height="15" rx="2" fill="white" opacity="0.8"/>
    <rect x="50" y="100" width="12" height="15" rx="2" fill="white" opacity="0.8"/>
    
    <!-- Building 2 -->
    <rect x="100" y="20" width="90" height="230" rx="8" fill="url(#buildingGradient)" filter="url(#shadow)"/>
    <rect x="115" y="40" width="15" height="18" rx="2" fill="white" opacity="0.8"/>
    <rect x="140" y="40" width="15" height="18" rx="2" fill="white" opacity="0.8"/>
    <rect x="165" y="40" width="15" height="18" rx="2" fill="white" opacity="0.8"/>
    
    <!-- Building 3 -->
    <rect x="210" y="70" width="75" height="180" rx="8" fill="url(#buildingGradient)" filter="url(#shadow)"/>
  </g>
  
  <!-- Blockchain network visualization -->
  <g transform="translate(350, 80)">
    <!-- Nodes -->
    <circle cx="50" cy="50" r="20" fill="url(#heroGradient)" opacity="0.8" filter="url(#shadow)"/>
    <circle cx="150" cy="80" r="20" fill="url(#heroGradient)" opacity="0.8" filter="url(#shadow)"/>
    <circle cx="120" cy="180" r="20" fill="url(#heroGradient)" opacity="0.8" filter="url(#shadow)"/>
    <circle cx="200" cy="150" r="20" fill="url(#heroGradient)" opacity="0.8" filter="url(#shadow)"/>
    
    <!-- Connections -->
    <line x1="70" y1="60" x2="130" y2="90" stroke="url(#heroGradient)" stroke-width="3" opacity="0.6"/>
    <line x1="150" y1="100" x2="130" y2="160" stroke="url(#heroGradient)" stroke-width="3" opacity="0.6"/>
    <line x1="140" y1="170" x2="180" y2="160" stroke="url(#heroGradient)" stroke-width="3" opacity="0.6"/>
    <line x1="160" y1="90" x2="190" y2="140" stroke="url(#heroGradient)" stroke-width="3" opacity="0.6"/>
    
    <!-- Data particles -->
    <circle cx="100" cy="75" r="3" fill="#f093fb" opacity="0.8">
      <animate attributeName="cy" values="75;85;75" dur="2s" repeatCount="indefinite"/>
    </circle>
    <circle cx="135" cy="125" r="3" fill="#667eea" opacity="0.8">
      <animate attributeName="cx" values="135;145;135" dur="1.5s" repeatCount="indefinite"/>
    </circle>
    <circle cx="165" cy="120" r="3" fill="#764ba2" opacity="0.8">
      <animate attributeName="cy" values="120;110;120" dur="1.8s" repeatCount="indefinite"/>
    </circle>
  </g>
  
  <!-- Floating elements -->
  <g opacity="0.3">
    <circle cx="480" cy="60" r="8" fill="#667eea">
      <animate attributeName="cy" values="60;50;60" dur="3s" repeatCount="indefinite"/>
    </circle>
    <rect x="520" y="180" width="12" height="12" rx="2" fill="#f093fb" transform="rotate(45 526 186)">
      <animate attributeName="y" values="180;170;180" dur="2.5s" repeatCount="indefinite"/>
    </rect>
    <circle cx="80" cy="320" r="6" fill="#764ba2">
      <animate attributeName="cx" values="80;90;80" dur="4s" repeatCount="indefinite"/>
    </circle>
  </g>
</svg>
