<svg width="160" height="40" viewBox="0 0 160 40" fill="none" xmlns="http://www.w3.org/2000/svg">
  <defs>
    <linearGradient id="primaryGradient" x1="0%" y1="0%" x2="100%" y2="100%">
      <stop offset="0%" style="stop-color:#3B82F6;stop-opacity:1" />
      <stop offset="100%" style="stop-color:#1E40AF;stop-opacity:1" />
    </linearGradient>
    <linearGradient id="accentGradient" x1="0%" y1="0%" x2="100%" y2="100%">
      <stop offset="0%" style="stop-color:#10B981;stop-opacity:1" />
      <stop offset="100%" style="stop-color:#059669;stop-opacity:1" />
    </linearGradient>
  </defs>
  
  <!-- Logo Icon compact -->
  <g transform="translate(5, 8)">
    <!-- Maison -->
    <path d="M2 16 L12 6 L22 16 L22 22 L16 22 L16 16 L8 16 L8 22 L2 22 Z" fill="url(#primaryGradient)"/>
    <!-- Toit -->
    <path d="M0 16 L12 4 L24 16 L21 16 L12 7 L3 16 Z" fill="url(#accentGradient)"/>
    <!-- Badge -->
    <g transform="translate(18, 11)">
      <path d="M0 0 L4 0 L4 3 L2 5 L0 3 Z" fill="url(#accentGradient)" stroke="#ffffff" stroke-width="0.5"/>
      <path d="M1 1.5 L1.5 2 L3 0.5" stroke="#ffffff" stroke-width="0.8" stroke-linecap="round" fill="none"/>
    </g>
    <!-- Fenêtre -->
    <rect x="9" y="12" width="6" height="5" fill="#ffffff" opacity="0.9"/>
    <rect x="9" y="12" width="6" height="2" fill="url(#primaryGradient)" opacity="0.7"/>
  </g>
  
  <!-- Texte -->
  <text x="40" y="15" 
        font-family="'Inter', -apple-system, BlinkMacSystemFont, sans-serif" 
        font-size="14" 
        font-weight="700" 
        fill="url(#primaryGradient)">Proof</text>
  <text x="82" y="15" 
        font-family="'Inter', -apple-system, BlinkMacSystemFont, sans-serif" 
        font-size="14" 
        font-weight="400" 
        fill="#1F2937">Estate</text>
  
  <!-- Tagline compact -->
  <text x="40" y="28" 
        font-family="'Inter', -apple-system, BlinkMacSystemFont, sans-serif" 
        font-size="7" 
        font-weight="400" 
        fill="#6B7280" 
        letter-spacing="0.3px">CERTIFIED REAL ESTATE</text>
</svg>
